<?xml version="1.0" standalone="no"?>
<!DOCTYPE svg PUBLIC "-//W3C//DTD SVG 20010904//EN"
 "http://www.w3.org/TR/2001/REC-SVG-20010904/DTD/svg10.dtd">
<svg version="1.0" xmlns="http://www.w3.org/2000/svg"
 width="512.000000pt" height="512.000000pt" viewBox="0 0 512.000000 512.000000"
 preserveAspectRatio="xMidYMid meet">
<metadata>
Created by potrace 1.16, written by Peter Selinger 2001-2019
</metadata>
<g transform="translate(0.000000,512.000000) scale(0.100000,-0.100000)"
fill="#000000" stroke="none">
<path d="M454 4048 c-36 -24 -57 -49 -79 -92 l-30 -60 0 -1470 c0 -1471 0
-1471 21 -1516 25 -54 76 -108 121 -126 27 -12 378 -14 2076 -14 l2043 0 44
22 c52 27 105 92 120 147 7 27 9 514 8 1508 l-3 1468 -22 40 c-26 49 -78 100
-116 114 -20 8 -658 11 -2082 11 l-2053 0 -48 -32z m4063 -160 c25 -17 49 -45
64 -75 l24 -48 0 -1330 c0 -1279 -1 -1331 -19 -1365 -10 -19 -28 -46 -40 -58
-50 -55 78 -52 -1983 -52 -1840 0 -1910 1 -1943 19 -19 10 -48 40 -65 66 l-30
48 -3 1321 c-2 979 0 1332 9 1363 15 56 64 111 114 128 34 12 325 14 1936 12
l1895 -2 41 -27z"/>
<path d="M865 3611 c-44 -20 -92 -70 -100 -104 -3 -12 -4 -299 -3 -637 l3
-615 23 -33 c13 -18 41 -41 63 -52 38 -20 56 -20 582 -18 l544 3 37 29 c21 16
47 48 57 72 19 41 19 71 17 646 l-3 603 -23 37 c-13 20 -40 47 -60 60 l-37 23
-530 2 c-498 3 -532 2 -570 -16z m1080 -75 c67 -28 65 -12 64 -648 0 -315 -4
-582 -8 -593 -5 -12 -10 22 -13 90 -3 85 -10 122 -27 160 -34 78 -114 151
-202 184 -26 9 -29 6 -125 -144 -54 -85 -99 -153 -100 -152 -1 1 -20 49 -42
106 l-41 104 61 69 c55 62 59 70 40 74 -18 5 -17 9 19 41 21 19 53 65 71 101
31 64 33 72 32 177 -1 116 -14 168 -55 227 -32 45 -111 78 -185 78 -179 0
-263 -110 -252 -332 6 -112 27 -167 93 -237 l46 -49 -27 -6 -27 -7 63 -64 63
-64 -34 -92 c-19 -50 -39 -99 -45 -107 -9 -12 -28 13 -102 129 -51 79 -93 148
-95 154 -5 14 -106 -39 -155 -81 -23 -19 -54 -57 -70 -82 -25 -43 -27 -57 -31
-176 -2 -79 -6 -123 -12 -115 -5 8 -9 282 -9 610 l0 595 28 26 c15 14 34 28
42 31 8 3 237 6 508 6 404 1 499 -2 527 -13z"/>
<path d="M2390 3557 c-35 -18 -39 -61 -7 -82 21 -14 126 -15 1010 -13 905 3
988 4 1003 20 22 22 12 61 -21 76 -39 18 -1950 17 -1985 -1z"/>
<path d="M2382 3294 c-36 -25 -26 -66 18 -81 46 -16 1906 -18 1962 -2 49 13
63 53 28 81 -21 17 -67 18 -1004 18 -883 0 -984 -2 -1004 -16z"/>
<path d="M2382 3034 c-13 -9 -22 -26 -22 -40 0 -55 -17 -54 1023 -54 668 0
963 3 986 11 42 15 53 55 21 81 -21 17 -67 18 -1004 18 -872 0 -984 -2 -1004
-16z"/>
<path d="M2370 2621 c-14 -26 -13 -64 2 -79 9 -9 91 -12 310 -12 284 0 298 1
308 19 14 28 12 57 -6 75 -13 14 -55 16 -309 16 -281 0 -295 -1 -305 -19z"/>
<path d="M3114 2632 c-18 -12 -25 -48 -15 -76 l11 -26 298 0 c218 0 301 3 310
12 7 7 12 26 12 43 0 17 -5 36 -12 43 -13 13 -584 18 -604 4z"/>
<path d="M3800 2625 c-17 -20 -15 -76 2 -86 22 -14 592 -11 606 3 7 7 12 26
12 43 0 17 -5 36 -12 43 -9 9 -90 12 -304 12 -250 0 -293 -2 -304 -15z"/>
<path d="M2370 2391 c-14 -26 -13 -64 2 -79 9 -9 91 -12 310 -12 284 0 298 1
308 19 14 28 12 57 -6 75 -13 14 -55 16 -309 16 -281 0 -295 -1 -305 -19z"/>
<path d="M3104 2385 c-12 -18 -14 -31 -7 -52 l10 -28 298 -3 c211 -2 302 1
311 9 17 14 18 71 2 87 -9 9 -90 12 -305 12 l-293 0 -16 -25z"/>
<path d="M3800 2395 c-13 -16 -16 -67 -5 -85 9 -15 597 -14 613 2 7 7 12 26
12 43 0 17 -5 36 -12 43 -9 9 -90 12 -304 12 -250 0 -293 -2 -304 -15z"/>
<path d="M3193 2040 c-31 -13 -40 -55 -18 -80 18 -19 35 -20 620 -20 454 0
604 3 613 12 20 20 14 65 -10 82 -20 14 -93 16 -603 15 -319 0 -590 -4 -602
-9z"/>
<path d="M1653 1924 c-67 -33 -232 -216 -373 -413 l-72 -101 -91 -1 c-51 -1
-130 -4 -177 -8 -84 -7 -82 -7 82 -15 l167 -8 -40 -59 c-52 -77 -33 -76 23 1
l43 59 78 1 79 0 -27 -31 c-32 -39 -30 -78 5 -96 21 -11 -26 -13 -267 -13
-165 0 -303 -4 -317 -10 -20 -7 -26 -17 -26 -39 0 -59 -55 -56 1020 -56 1071
0 1020 -3 1020 55 0 19 -7 30 -25 38 -19 9 -197 12 -638 13 -557 1 -605 2
-534 15 91 16 214 62 280 104 43 27 56 30 126 30 43 0 160 3 259 7 161 5 182
8 182 23 0 14 -28 20 -192 39 -250 29 -236 25 -240 68 -2 26 -11 42 -31 57
-26 19 -42 21 -171 21 l-142 0 34 55 c77 128 84 281 14 280 -9 0 -31 -8 -49
-16z m55 -90 c-3 -31 -17 -78 -36 -116 -35 -71 -144 -203 -215 -261 -46 -38
-47 -38 -126 -35 l-79 3 115 140 c177 217 308 345 336 328 5 -3 7 -29 5 -59z
m38 -343 c54 -10 117 -22 138 -26 33 -5 37 -9 25 -20 -10 -9 -72 -15 -219 -19
l-204 -7 54 58 c52 56 56 58 81 47 14 -7 71 -22 125 -33z m69 -110 c-21 -20
-164 -70 -244 -85 -93 -18 -197 -21 -206 -6 -3 5 11 27 30 49 35 39 39 40 108
44 168 8 321 7 312 -2z"/>
<path d="M3182 1834 c-27 -18 -29 -55 -4 -77 17 -15 74 -17 611 -17 389 0 599
4 612 10 13 7 19 21 19 45 0 24 -6 38 -19 45 -13 6 -222 10 -608 10 -517 0
-591 -2 -611 -16z"/>
</g>
</svg>
